<?xml version="1.0" encoding="UTF-8" standalone="no"?>
<svg
   class="svg-inline--fa fa-train-subway logo"
   viewBox="0 0 100 100"
   version="1.1"
   width="100"
   height="100"
   xmlns="http://www.w3.org/2000/svg"
   xmlns:svg="http://www.w3.org/2000/svg">

  <defs>
    <!-- headlight glow -->
    <filter id="headlight-glow" x="-400%" y="-400%" width="900%" height="900%">
      <feGaussianBlur in="SourceGraphic" stdDeviation="9" />
    </filter>
  </defs>
  
  <!-- window color -->
  <rect fill="#808080" width="69" height="36" x="15" y="18" />

  <!-- vehicle -->
  <path
     fill="#404044"
     d="m 26.631578,4.9473696 c -9.675985,0 -17.5263145,7.8503294 -17.5263145,17.5263144 v 46.736843 c 0,8.76316 6.4263155,16.011023 14.8060845,17.325493 l -8.398025,8.39803 c -1.277961,1.27796 -0.365132,3.487 1.44227,3.487 h 7.247861 c 1.55181,0 3.030593,-0.62072 4.125986,-1.71611 l 9.986349,-9.9681 H 61.68421 l 9.968092,9.9681 c 1.095395,1.09538 2.574178,1.71611 4.125987,1.71611 h 7.26612 c 1.825655,0 2.738484,-2.20904 1.442271,-3.487 L 76.088653,86.53602 C 84.48668,85.2398 90.894736,77.973687 90.894736,69.210527 V 22.473684 c 0,-9.675985 -7.850327,-17.5263144 -17.526315,-17.5263144 z M 20.789473,28.315789 c 0,-3.231413 2.610691,-5.842105 5.842105,-5.842105 h 14.605265 c 3.231414,0 5.842105,2.610692 5.842105,5.842105 v 17.526317 c 0,3.231414 -2.610691,5.842106 -5.842105,5.842106 H 26.631578 c -3.231414,0 -5.842105,-2.610692 -5.842105,-5.842106 z m 37.973684,-5.842105 h 14.605264 c 3.231415,0 5.842108,2.610692 5.842108,5.842105 v 17.526317 c 0,3.231414 -2.610693,5.842106 -5.842108,5.842106 H 58.763157 c -3.231414,0 -5.842105,-2.610692 -5.842105,-5.842106 V 28.315789 c 0,-3.231413 2.610691,-5.842105 5.842105,-5.842105 z M 32.473683,69.210527 c 0,3.231415 -2.610689,5.842108 -5.842105,5.842108 -3.231414,0 -5.842105,-2.610693 -5.842105,-5.842108 0,-3.231415 2.610691,-5.842105 5.842105,-5.842105 3.231416,0 5.842105,2.61069 5.842105,5.842105 z m 40.894738,5.842108 c -3.231415,0 -5.842105,-2.610693 -5.842105,-5.842108 0,-3.231415 2.610689,-5.842105 5.842105,-5.842105 3.231415,0 5.842108,2.61069 5.842108,5.842105 0,3.231415 -2.610693,5.842108 -5.842108,5.842108 z" />

  <!-- headlights -->
  <circle cx="26.631578" cy="69.210518" fill="#f5b342" r="6.3898025" />
  <circle cx="73.368416" cy="69.210518" fill="#f5b342" r="6.3898025" />
  
  <!-- headlight glow -->
  <circle cx="26.631578" cy="69.210518" fill="#f5b342" r="6.3898025" filter="url(#headlight-glow)" />
  <circle cx="73.368416" cy="69.210518" fill="#f5b342" r="6.3898025" filter="url(#headlight-glow)" />
</svg>
