<?xml version="1.0" encoding="UTF-8" standalone="no"?>
<svg
   class="svg-inline--fa fa-train-subway logo"
   viewBox="0 0 100 100"
   version="1.1"
   width="100"
   height="100"
   xmlns="http://www.w3.org/2000/svg"
   xmlns:svg="http://www.w3.org/2000/svg">

  <!-- background -->
  <path
     fill="#303034"
     width="100"
     height="100"
     x="-7.1054274e-15"
     y="-7.1054274e-15"
     d="M 15.6,0 H 84.4 A 15.6,15.6 45 0 1 100,15.6 l 0,68.8 A 15.6,15.6 135 0 1 84.4,100 l -68.8,0 A 15.6,15.6 45 0 1 0,84.4 V 15.6 A 15.6,15.6 135 0 1 15.6,0 Z" />

  <!-- window color -->
  <rect fill="#808080" width="62" height="32" x="19" y="22" />

  <!-- vehicle -->
  <path
     fill="#606064"
     d="m 29.080309,9.72278 c -8.662061,0 -15.689769,7.027707 -15.689769,15.689768 v 41.839381 c 0,7.844885 5.752914,14.333259 13.254587,15.50999 l -7.518016,7.518013 c -1.144045,1.144048 -0.326868,3.121613 1.291137,3.121613 h 6.488375 c 1.389197,0 2.713022,-0.555681 3.693633,-1.53629 l 8.939898,-8.923556 h 20.919692 l 8.923556,8.923556 c 0.98061,0.980609 2.304434,1.53629 3.693633,1.53629 h 6.504717 c 1.634349,0 2.451526,-1.977565 1.291138,-3.121613 L 73.354873,82.761919 C 80.87289,81.601531 86.60946,75.096814 86.60946,67.251929 V 25.412548 c 0,-8.662061 -7.027708,-15.689768 -15.689768,-15.689768 z m -5.229922,20.919689 c 0,-2.892802 2.337122,-5.229921 5.229922,-5.229921 h 13.074807 c 2.892801,0 5.229922,2.337119 5.229922,5.229921 v 15.689769 c 0,2.892801 -2.337121,5.229923 -5.229922,5.229923 H 29.080309 c -2.8928,0 -5.229922,-2.337122 -5.229922,-5.229923 z m 33.994497,-5.229921 h 13.074808 c 2.8928,0 5.229922,2.337119 5.229922,5.229921 v 15.689769 c 0,2.892801 -2.337122,5.229923 -5.229922,5.229923 H 57.844884 c -2.8928,0 -5.229922,-2.337122 -5.229922,-5.229923 V 30.642469 c 0,-2.892802 2.337122,-5.229921 5.229922,-5.229921 z M 34.310233,67.251929 c 0,2.8928 -2.337122,5.229923 -5.229924,5.229923 -2.8928,0 -5.229922,-2.337123 -5.229922,-5.229923 0,-2.892801 2.337122,-5.229923 5.229922,-5.229923 2.892802,0 5.229924,2.337122 5.229924,5.229923 z m 36.609459,5.229923 c -2.892802,0 -5.229924,-2.337123 -5.229924,-5.229923 0,-2.892801 2.337122,-5.229923 5.229924,-5.229923 2.8928,0 5.229922,2.337122 5.229922,5.229923 0,2.8928 -2.337122,5.229923 -5.229922,5.229923 z" />

  <!-- headlights -->
  <circle cx="29.080309" cy="67.251923" r="5.7202277" fill="#f5b342" />
  <circle cx="70.919693" cy="67.251923" r="5.7202277" fill="#f5b342" />
</svg>
