<?xml version="1.0" encoding="UTF-8" standalone="no"?>
<svg
   class="svg-inline--fa fa-train-subway logo"
   viewBox="-42 -10 532 532"
   version="1.1"
   id="svg9"
   sodipodi:docname="favicon.svg"
   inkscape:version="1.2.2 (b0a8486, 2022-12-01)"
   xmlns:inkscape="http://www.inkscape.org/namespaces/inkscape"
   xmlns:sodipodi="http://sodipodi.sourceforge.net/DTD/sodipodi-0.dtd"
   xmlns="http://www.w3.org/2000/svg"
   xmlns:svg="http://www.w3.org/2000/svg">
  <defs
     id="defs13" />
  <sodipodi:namedview
     id="namedview11"
     pagecolor="#ffffff"
     bordercolor="#000000"
     borderopacity="0.25"
     inkscape:showpageshadow="2"
     inkscape:pageopacity="0.0"
     inkscape:pagecheckerboard="0"
     inkscape:deskcolor="#d1d1d1"
     showgrid="false"
     inkscape:zoom="1.1875"
     inkscape:cx="258.52632"
     inkscape:cy="266.10526"
     inkscape:window-width="1309"
     inkscape:window-height="828"
     inkscape:window-x="0"
     inkscape:window-y="25"
     inkscape:window-maximized="0"
     inkscape:current-layer="svg9" />
  <rect
     style="fill:#808080;stroke-width:1.20783"
     id="rect289"
     width="379.87903"
     height="201.22791"
     x="34.060486"
     y="75.665298" />
  <!-- vehicle -->
  <path
     fill="#404044"
     d="M96 0C43 0 0 43 0 96V352c0 48 35.2 87.7 81.1 94.9l-46 46C28.1 499.9 33.1 512 43 512H82.7c8.5 0 16.6-3.4 22.6-9.4L160 448H288l54.6 54.6c6 6 14.1 9.4 22.6 9.4H405c10 0 15-12.1 7.9-19.1l-46-46c46-7.1 81.1-46.9 81.1-94.9V96c0-53-43-96-96-96H96zM64 128c0-17.7 14.3-32 32-32h80c17.7 0 32 14.3 32 32v96c0 17.7-14.3 32-32 32H96c-17.7 0-32-14.3-32-32V128zM272 96h80c17.7 0 32 14.3 32 32v96c0 17.7-14.3 32-32 32H272c-17.7 0-32-14.3-32-32V128c0-17.7 14.3-32 32-32zM128 352c0 17.7-14.3 32-32 32s-32-14.3-32-32s14.3-32 32-32s32 14.3 32 32zm224 32c-17.7 0-32-14.3-32-32s14.3-32 32-32s32 14.3 32 32s-14.3 32-32 32z"
     id="path3" />
  <!-- headlight left -->
  <circle
     cx="96"
     cy="352"
     r="35"
     fill="#f5b342"
     id="circle5" />
  <!-- headlight right -->
  <circle
     cx="352"
     cy="352"
     r="35"
     fill="#f5b342"
     id="circle7" />
</svg>
