<?xml version="1.0" encoding="UTF-8" standalone="no"?>
<svg
   class="svg-inline--fa fa-train-subway logo"
   viewBox="0 0 100 100"
   version="1.1"
   width="100"
   height="100"
   xmlns="http://www.w3.org/2000/svg"
   xmlns:svg="http://www.w3.org/2000/svg">

  <defs>
    <!-- headlight glow -->
    <filter id="headlight-glow" x="-400%" y="-400%" width="900%" height="900%">
      <feGaussianBlur in="SourceGraphic" stdDeviation="6" />
    </filter>
  </defs>

    <!-- background -->
  <rect fill="#303034" width="100" height="100" x="0" y="0" />

  <!-- window color -->
  <rect fill="#808080" width="48" height="25" x="26" y="27" />

  <!-- vehicle -->
  <path
     fill="#606064"
     d="m 33.636156,17.27231 c -6.775661,0 -12.272886,5.497233 -12.272886,12.272887 v 32.727692 c 0,6.136447 4.500054,11.21179 10.368028,12.132261 l -5.880757,5.880757 c -0.894896,0.894896 -0.255682,2.441797 1.009954,2.441797 h 5.075352 c 1.086662,0 2.122191,-0.434664 2.889245,-1.201728 l 6.992985,-6.980202 h 16.36385 l 6.980202,6.980202 c 0.767055,0.767064 1.802575,1.201728 2.889237,1.201728 h 5.088135 c 1.278427,0 1.917641,-1.546901 1.009962,-2.441797 L 68.268698,74.40515 C 74.149463,73.497471 78.636734,68.409336 78.636734,62.272889 V 29.545197 c 0,-6.775654 -5.497233,-12.272887 -12.272886,-12.272887 z m -4.090964,16.363851 c 0,-2.262815 1.82815,-4.090964 4.090964,-4.090964 h 10.227403 c 2.262815,0 4.090957,1.828149 4.090957,4.090964 v 12.272886 c 0,2.262806 -1.828142,4.090956 -4.090957,4.090956 H 33.636156 c -2.262814,0 -4.090964,-1.82815 -4.090964,-4.090956 z m 26.591253,-4.090964 h 10.227403 c 2.262815,0 4.090965,1.828149 4.090965,4.090964 v 12.272886 c 0,2.262806 -1.82815,4.090956 -4.090965,4.090956 H 56.136445 c -2.262815,0 -4.090965,-1.82815 -4.090965,-4.090956 V 33.636161 c 0,-2.262815 1.82815,-4.090964 4.090965,-4.090964 z M 37.727113,62.272889 c 0,2.262814 -1.82815,4.090964 -4.090957,4.090964 -2.262814,0 -4.090964,-1.82815 -4.090964,-4.090964 0,-2.262815 1.82815,-4.090957 4.090964,-4.090957 2.262807,0 4.090957,1.828142 4.090957,4.090957 z m 28.636735,4.090964 c -2.262814,0 -4.090964,-1.82815 -4.090964,-4.090964 0,-2.262815 1.82815,-4.090957 4.090964,-4.090957 2.262815,0 4.090965,1.828142 4.090965,4.090957 0,2.262814 -1.82815,4.090964 -4.090965,4.090964 z" />

  <!-- headlights -->
  <circle cx="33.636154" cy="62.272892" r="4.4744892" fill="#f5b342" />
  <circle cx="66.363838" cy="62.272892" r="4.4744892" fill="#f5b342" />
  
  <!-- headlight glow -->
  <circle cx="33.636154" cy="62.272892" r="4.4744892" fill="#f5b342" filter="url(#headlight-glow)" />
  <circle cx="66.363838" cy="62.272892" r="4.4744892" fill="#f5b342" filter="url(#headlight-glow)" />
</svg>
