<?xml version="1.0" encoding="UTF-8" standalone="no"?>
<svg
   class="svg-inline--fa fa-train-subway logo"
   viewBox="-98 -82 550.67736 550.67736"
   version="1.1"
   id="svg52"
   width="455.9238"
   height="455.9238"
   xmlns="http://www.w3.org/2000/svg"
   xmlns:svg="http://www.w3.org/2000/svg">
  <path
     style="fill:#303034;stroke-width:1.20783"
     id="rect268"
     width="550.67737"
     height="550.67737"
     x="-98"
     y="-82"
     d="m -53,-82 h 460.67737 a 45,45 45 0 1 45,45 v 460.67737 a 45,45 135 0 1 -45,45 H -53 a 45,45 45 0 1 -45,-45 V -37 a 45,45 135 0 1 45,-45 z" />
  <rect
     style="fill:#808080;stroke-width:1.20783"
     id="rect289"
     width="379.87903"
     height="201.22791"
     x="-12.600834"
     y="20.086349" />
  <path
     fill="#404044"
     d="m 45.922025,-60.825491 c -53.0000001,0 -96,43 -96,96 V 291.17451 c 0,48 35.2,87.7 81.1,94.9 l -46,46 c -7,7 -2,19.1 7.8999999,19.1 H 32.622025 c 8.5,0 16.6,-3.4 22.6,-9.4 l 54.699995,-54.6 h 128 l 54.6,54.6 c 6,6 14.1,9.4 22.6,9.4 h 39.8 c 10,0 15,-12.1 7.9,-19.1 l -46,-46 c 46,-7.1 81.1,-46.9 81.1,-94.9 V 35.174509 c 0,-53 -43,-96 -96,-96 z m -32,128 c 0,-17.7 14.3,-32 32,-32 h 79.999995 c 17.7,0 32,14.3 32,32 v 96.000001 c 0,17.7 -14.3,32 -32,32 H 45.922025 c -17.7,0 -32,-14.3 -32,-32 z m 207.999995,-32 h 80 c 17.7,0 32,14.3 32,32 v 96.000001 c 0,17.7 -14.3,32 -32,32 h -80 c -17.7,0 -32,-14.3 -32,-32 V 67.174509 c 0,-17.7 14.3,-32 32,-32 z M 77.922024,291.17451 c 0,17.7 -14.3,32 -31.999999,32 -17.7,0 -32,-14.3 -32,-32 0,-17.7 14.3,-32 32,-32 17.699999,0 31.999999,14.3 31.999999,32 z m 223.999996,32 c -17.7,0 -32,-14.3 -32,-32 0,-17.7 14.3,-32 32,-32 17.7,0 32,14.3 32,32 0,17.7 -14.3,32 -32,32 z"
     id="path46"
     style="fill:#5e5e5e;fill-opacity:1" />
  <circle
     cx="45.922024"
     cy="291.1745"
     r="35"
     fill="#f5b342"
     id="circle48" />
  <circle
     cx="301.922"
     cy="291.1745"
     r="35"
     fill="#f5b342"
     id="circle50" />
</svg>
