<!DOCTYPE svg PUBLIC "-//W3C//DTD SVG 1.1 Basic//EN" "http://www.w3.org/Graphics/SVG/1.1/DTD/svg11-basic.dtd">
<svg class="svg-inline--fa fa-train-subway logo" xmlns="http://www.w3.org/2000/svg" viewBox="-42 -10 532 532">

  <defs>
    <!-- left window clip -->
    <clipPath id="leftWindow">
      <rect x="50" y="90" width="175" height="175" fill="white" />
    </clipPath>

    <!-- right window clip -->
    <clipPath id="rightWindow">
      <rect x="225" y="90" width="175" height="175" />
    </clipPath>
  </defs>

  <!-- window gloss left -->
  <g clip-path="url(#leftWindow)">
    <path fill="#909094" d="M -156 64 L -58 285 L 46 285 L -46 62" opacity=".7">
      <animateTransform
        attributeName="transform"
        type="translate"
        from="0 0"
        to="500 0"
        begin="1000ms"
        dur="800ms"
      />
    </path>
  </g>

  <!-- window gloss right -->
  <g clip-path="url(#rightWindow)">
    <path fill="#9090a4" d="M -156 64 L -58 285 L 46 285 L -46 62" opacity=".7">
      <animateTransform
        attributeName="transform"
        type="translate"
        from="175 0"
        to="675 0"
        begin="1000ms"
        dur="800ms"
      />
    </path>
  </g>

  <!-- vehicle -->
  <path fill="#404044" d="M96 0C43 0 0 43 0 96V352c0 48 35.2 87.7 81.1 94.9l-46 46C28.1 499.9 33.1 512 43 512H82.7c8.5 0 16.6-3.4 22.6-9.4L160 448H288l54.6 54.6c6 6 14.1 9.4 22.6 9.4H405c10 0 15-12.1 7.9-19.1l-46-46c46-7.1 81.1-46.9 81.1-94.9V96c0-53-43-96-96-96H96zM64 128c0-17.7 14.3-32 32-32h80c17.7 0 32 14.3 32 32v96c0 17.7-14.3 32-32 32H96c-17.7 0-32-14.3-32-32V128zM272 96h80c17.7 0 32 14.3 32 32v96c0 17.7-14.3 32-32 32H272c-17.7 0-32-14.3-32-32V128c0-17.7 14.3-32 32-32zM128 352c0 17.7-14.3 32-32 32s-32-14.3-32-32s14.3-32 32-32s32 14.3 32 32zm224 32c-17.7 0-32-14.3-32-32s14.3-32 32-32s32 14.3 32 32s-14.3 32-32 32z"></path>

  <!-- headlight left -->
  <circle cx="96" cy="352" r="35" opacity="0" fill="#ffd642">
    <animate
      attributeName="opacity"
      from="0" to="1"
      dur="160ms"
      begin="850ms"
      fill="freeze" />
  </circle>

  <!-- headlight right -->
  <circle cx="352" cy="352" r="35" opacity="0" fill="#ffd642">
    <animate
      attributeName="opacity"
      from="0" to="1"
      dur="160ms"
      begin="950ms"
      fill="freeze" />
  </circle>

</svg>
