<!DOCTYPE svg PUBLIC "-//W3C//DTD SVG 1.1 Basic//EN" "http://www.w3.org/Graphics/SVG/1.1/DTD/svg11-basic.dtd">
<svg class="svg-inline--fa fa-train-subway logo" xmlns="http://www.w3.org/2000/svg" viewBox="-92 -10 632 532">

  <defs>
    <!-- left window clip -->
    <clipPath id="leftWindow">
      <rect x="50" y="90" width="175" height="175" fill="white" />
    </clipPath>

    <!-- right window clip -->
    <clipPath id="rightWindow">
      <rect x="225" y="90" width="175" height="175" />
    </clipPath>

    <!-- headlight glow -->
    <filter id="headlight-glow" x="-950%" y="-950%" width="2000%" height="2000%">
      <feGaussianBlur in="SourceGraphic" stdDeviation="50" />
    </filter>

    <!-- headlight halo glow -->
    <filter id="headlight-halo-glow" x="-950%" y="-950%" width="2000%" height="2000%">
      <feGaussianBlur in="SourceGraphic" stdDeviation="30">
        <animate
          attributeName="stdDeviation"
          from="55" to="60"
          keySplines="0.2 0.55 0.6 .95; 0.2 0.55 0.6 .95"
          dur="700ms"
          begin="775ms"
          fill="freeze" />
      </feGaussianBlur>
    </filter>
  </defs>

  <!-- window gloss left -->
  <g clip-path="url(#leftWindow)">
    <path fill="#909094" d="M -156 64 L -58 285 L 46 285 L -46 62" opacity=".7">
      <animateTransform
        attributeName="transform"
        type="translate"
        from="0 0"
        to="500 0"
        begin="1600ms"
        dur="800ms"
      />
    </path>
  </g>

  <!-- window gloss right -->
  <g clip-path="url(#rightWindow)">
    <path fill="#9090a4" d="M -156 64 L -58 285 L 46 285 L -46 62" opacity=".7">
      <animateTransform
        attributeName="transform"
        type="translate"
        from="0 0"
        to="1000 0"
        begin="1600ms"
        dur="1750ms"
      />
    </path>
  </g>

  <!-- vehicle -->
  <path fill="#404044" d="M96 0C43 0 0 43 0 96V352c0 48 35.2 87.7 81.1 94.9l-46 46C28.1 499.9 33.1 512 43 512H82.7c8.5 0 16.6-3.4 22.6-9.4L160 448H288l54.6 54.6c6 6 14.1 9.4 22.6 9.4H405c10 0 15-12.1 7.9-19.1l-46-46c46-7.1 81.1-46.9 81.1-94.9V96c0-53-43-96-96-96H96zM64 128c0-17.7 14.3-32 32-32h80c17.7 0 32 14.3 32 32v96c0 17.7-14.3 32-32 32H96c-17.7 0-32-14.3-32-32V128zM272 96h80c17.7 0 32 14.3 32 32v96c0 17.7-14.3 32-32 32H272c-17.7 0-32-14.3-32-32V128c0-17.7 14.3-32 32-32zM128 352c0 17.7-14.3 32-32 32s-32-14.3-32-32s14.3-32 32-32s32 14.3 32 32zm224 32c-17.7 0-32-14.3-32-32s14.3-32 32-32s32 14.3 32 32s-14.3 32-32 32z" />

  <!-- headlight glow left -->
  <circle cx="96" cy="352" r="35" opacity="0" fill="#f5b342" filter="url(#headlight-glow)">
    <animate
      attributeName="opacity"
      from="0" to="1"
      dur="1ms"
      begin="1100ms"
      fill="freeze" />
  </circle>

  <!-- headlight glow right -->
  <circle cx="352" cy="352" r="35" opacity="0" fill="#f5b342" filter="url(#headlight-glow)">
    <animate
      attributeName="opacity"
      from="0" to="1"
      dur="1ms"
      begin="1100ms"
      fill="freeze" />
  </circle>

  <!-- headlight halo left -->
  <circle cx="96" cy="352" r="135" opacity="0" stroke="#f5b342" fill="none" stroke-width="15" filter="url(#headlight-halo-glow)">
    <animate
      attributeName="opacity"
      from="0" to="1"
      dur="100ms"
      begin="1100ms"
      fill="freeze" />
    <animate
      attributeName="r"
      from="100" to="0"
      keySplines="0.2 0.55 0.6 .95; 0.2 0.55 0.6 .95"
      dur="1200ms"
      begin="1100ms"
      fill="freeze" />
 </circle>

  <!-- headlight halo right -->
  <circle cx="352" cy="352" r="135" opacity="0" stroke="#f5b342" fill="none" stroke-width="15" filter="url(#headlight-halo-glow)">
    <animate
      attributeName="opacity"
      from="0" to="1"
      dur="100ms"
      begin="1100ms"
      fill="freeze" />
    <animate
      attributeName="r"
      from="100" to="0"
      keySplines="0.2 0.55 0.6 .95; 0.2 0.55 0.6 .95"
      dur="1200ms"
      begin="1100ms"
      fill="freeze" />
 </circle>

 <!-- headlight left -->
  <circle cx="96" cy="352" r="35" opacity="0" fill="#f5b342">
    <animate
      attributeName="opacity"
      from="0" to="1"
      dur="160ms"
      begin="1100ms"
      fill="freeze" />
  </circle>

  <!-- headlight right -->
  <circle cx="352" cy="352" r="35" opacity="0" fill="#f5b342">
    <animate
      attributeName="opacity"
      from="0" to="1"
      dur="160ms"
      begin="1100ms"
      fill="freeze" />
  </circle>

</svg>